External Loads File
version=1
nRows=62
nColumns=13
Range=5.000000e-03-10 seconds
endheader
time 	forceRightX 	forceRightY 	forceRightZ 	pointRightX 	pointRightY 	pointRightZ 	forceLeftX 	forceLeftY 	forceLeftZ 	pointLeftX 	pointLeftY 	pointLeftZ 		
2.505000 353.585849 997.104191 -0.000000 0.328702 0.165161 -0.146343 -98.162557 -66.701863 -0.000000 0.229985 0.484432 -0.377120
2.510000 320.147933 985.197272 -0.000000 0.324196 0.163104 -0.146299 -96.059968 -66.881806 -0.000000 0.234893 0.487199 -0.377235
2.515000 339.448416 955.320648 -0.000000 0.319589 0.161317 -0.146249 -97.815792 -61.598558 -0.000000 0.239897 0.489761 -0.377286
2.520000 308.512246 942.684165 -0.000000 0.314985 0.159590 -0.146193 -96.527867 -61.151456 -0.000000 0.244909 0.492029 -0.377342
2.525000 334.841446 910.440108 -0.000000 0.310302 0.157979 -0.146115 -98.954457 -54.397252 -0.000000 0.249984 0.494119 -0.377443
2.530000 305.447693 897.635465 -0.000000 0.305600 0.156478 -0.146085 -97.880617 -53.099277 -0.000000 0.255137 0.495989 -0.377513
2.535000 342.744387 860.086866 -0.000000 0.300903 0.155328 -0.146019 -100.306507 -43.629592 -0.000000 0.260236 0.497664 -0.377607
2.540000 313.784560 846.322787 -0.000000 0.296133 0.154198 -0.145914 -98.817176 -40.704264 -0.000000 0.265512 0.499121 -0.377552
2.545000 344.151544 807.694048 -0.000000 0.291363 0.153446 -0.145838 -99.519703 -29.403278 -0.000000 0.271174 0.500366 -0.377065
2.550000 315.045392 791.012649 -0.000000 0.286549 0.152728 -0.145766 -97.333628 -23.609253 -0.000000 0.276309 0.501325 -0.377235
2.555000 340.563724 748.933223 -0.000000 0.281725 0.152288 -0.145721 -95.861667 -8.904173 -0.000000 0.281422 0.502066 -0.377379
2.560000 312.140593 727.463099 -0.000000 0.276939 0.151963 -0.145702 -92.670478 1.548662 -0.000000 0.286284 0.502589 -0.377894
2.565000 283.210916 703.116628 -0.000000 0.272043 0.152015 -0.145642 -89.201225 14.926706 -0.000000 0.291255 0.502899 -0.378086
2.570000 256.423710 675.024458 -0.000000 0.267181 0.152192 -0.145561 -85.465527 31.809355 -0.000000 0.296757 0.502987 -0.377856
2.575000 323.326777 602.873782 -0.000000 0.262257 0.152494 -0.145522 -73.026184 63.389170 -0.000000 0.301204 0.502919 -0.378402
2.580000 293.870929 573.486710 -0.000000 0.257261 0.153121 -0.145415 -65.967430 85.339649 -0.000000 0.305860 0.502608 -0.379089
2.585000 316.215682 513.794671 -0.000000 0.252278 0.154037 -0.145357 -48.291617 114.526497 -0.000000 0.310338 0.502051 -0.379316
2.590000 285.830890 482.849434 -0.000000 0.247292 0.155137 -0.145301 -39.569949 139.402466 -0.000000 0.314825 0.501246 -0.379623
2.595000 257.087222 449.712141 -0.000000 0.242394 0.156377 -0.145171 -31.596101 165.692664 -0.000000 0.319240 0.500169 -0.379844
2.600000 257.012698 398.465202 -0.000000 0.237378 0.157858 -0.145192 -11.928875 194.406979 -0.000000 0.323562 0.498848 -0.380044
2.605000 243.110299 354.339512 -0.000000 0.232372 0.159663 -0.145117 3.625209 222.470111 -0.000000 0.328131 0.497337 -0.380460
2.610000 216.340467 318.364324 -0.000000 0.227291 0.161720 -0.145127 9.979106 251.119818 -0.000000 0.332276 0.495629 -0.380836
2.615000 202.909614 272.983836 -0.000000 0.222157 0.164050 -0.145172 25.338933 279.770857 -0.000000 0.336375 0.493694 -0.381090
2.620000 179.541606 235.327726 -0.000000 0.217007 0.166609 -0.145160 28.397717 309.903605 -0.000000 0.340519 0.491563 -0.381335
2.625000 158.972144 197.268028 -0.000000 0.211819 0.169419 -0.145256 28.997898 340.935351 -0.000000 0.344620 0.489187 -0.381600
2.630000 155.017105 146.468789 -0.000000 0.206601 0.172441 -0.145317 60.091578 368.805677 -0.000000 0.348655 0.486536 -0.381904
2.635000 145.145269 101.310268 -0.000000 0.201343 0.175707 -0.145341 87.638800 395.732235 -0.000000 0.352653 0.483569 -0.382141
2.640000 128.343447 69.585415 -0.000000 0.196099 0.179221 -0.145385 85.571468 428.075685 -0.000000 0.356599 0.480398 -0.382356
2.645000 117.887928 30.576570 -0.000000 0.190878 0.182937 -0.145410 118.432670 451.431404 -0.000000 0.360435 0.476956 -0.382522
2.650000 105.647891 4.692120 -0.000000 0.185685 0.186601 -0.145392 114.954677 481.651564 -0.000000 0.364234 0.473215 -0.382654
2.655000 94.788139 -25.739447 -0.000000 0.180718 0.190577 -0.145257 149.396268 499.491707 -0.000000 0.367905 0.469237 -0.382691
2.660000 86.797793 -44.910259 -0.000000 0.175900 0.194729 -0.145172 145.318593 524.935615 -0.000000 0.372016 0.465063 -0.382999
2.665000 76.977511 -66.206418 -0.000000 0.171326 0.198922 -0.145075 176.763726 536.265502 -0.000000 0.375846 0.460634 -0.383056
2.670000 72.219988 -78.952917 -0.000000 0.166957 0.203422 -0.145029 174.717891 553.973016 -0.000000 0.379649 0.456018 -0.383134
2.675000 69.511077 -88.293757 -0.000000 0.162859 0.207931 -0.144929 169.441695 568.509217 -0.000000 0.383455 0.451271 -0.383213
2.680000 67.761390 -95.084962 -0.000000 0.159046 0.212687 -0.144935 165.460649 578.710935 -0.000000 0.387168 0.446366 -0.383225
2.685000 66.582499 -99.729164 -0.000000 0.155447 0.217531 -0.144948 162.286297 585.292730 -0.000000 0.390838 0.441295 -0.383267
2.690000 65.355183 -103.001810 -0.000000 0.152139 0.222459 -0.145104 161.280380 588.565787 -0.000000 0.394462 0.436090 -0.383278
2.695000 64.570178 -105.102079 -0.000000 0.149069 0.227636 -0.145153 158.080789 590.409069 -0.000000 0.397984 0.430752 -0.383367
2.700000 63.301458 -107.157577 -0.000000 0.146458 0.232453 -0.144951 157.098317 590.244922 -0.000000 0.401492 0.425289 -0.383320
2.705000 61.842117 -109.455131 -0.000000 0.143686 0.237900 -0.145146 156.419272 589.120439 -0.000000 0.404799 0.419679 -0.383298
2.710000 60.251816 -112.301526 -0.000000 0.141284 0.243904 -0.145277 155.954120 587.478494 -0.000000 0.408088 0.413959 -0.383299
2.715000 58.945206 -115.666563 -0.000000 0.138810 0.249793 -0.145375 154.062181 586.064246 -0.000000 0.411132 0.408011 -0.383253
2.720000 57.437311 -119.848861 -0.000000 0.136836 0.255686 -0.145712 153.837886 584.266620 -0.000000 0.414069 0.401931 -0.383144
2.725000 56.213102 -124.536000 -0.000000 0.135082 0.261607 -0.145859 153.430377 582.688214 -0.000000 0.416801 0.395707 -0.383119
2.730000 55.392384 -129.524098 -0.000000 0.133487 0.267690 -0.145907 152.810452 581.393668 -0.000000 0.419286 0.389368 -0.383095
2.735000 55.031531 -134.542466 -0.000000 0.132134 0.273928 -0.146029 151.961578 580.400535 -0.000000 0.421501 0.382889 -0.383108
2.740000 54.963759 -139.321201 -0.000000 0.131034 0.280256 -0.146087 151.536585 579.514449 -0.000000 0.423453 0.376383 -0.383024
2.745000 55.304748 -143.430010 -0.000000 0.130278 0.286679 -0.145983 150.876049 578.884492 -0.000000 0.425152 0.369758 -0.382973
2.750000 55.838557 -146.579587 -0.000000 0.129548 0.293159 -0.146078 150.686844 578.318096 -0.000000 0.426652 0.363054 -0.382918
2.755000 56.944884 -148.299985 -0.000000 0.129123 0.299592 -0.146146 149.266063 578.258303 -0.000000 0.427966 0.356259 -0.382521
2.760000 57.804259 -148.658112 -0.000000 0.128837 0.306127 -0.146353 149.613328 577.949117 -0.000000 0.428935 0.349377 -0.382789
2.765000 58.963347 -147.297559 -0.000000 0.128838 0.312822 -0.146487 149.449521 578.025289 -0.000000 0.429604 0.342452 -0.382844
2.770000 60.134214 -144.297905 -0.000000 0.129025 0.319441 -0.146554 149.860277 578.273199 -0.000000 0.430248 0.335503 -0.383316
2.775000 61.226262 -139.790145 -0.000000 0.129493 0.326051 -0.146331 151.318501 578.675854 -0.000000 0.430443 0.328507 -0.383619
2.780000 62.125557 -134.047393 -0.000000 0.130150 0.332623 -0.146452 154.555309 579.175609 -0.000000 0.430194 0.321471 -0.382885
2.785000 63.144661 -127.252244 -0.000000 0.131042 0.339306 -0.146528 158.521476 580.195205 -0.000000 0.429971 0.314434 -0.382714
2.790000 64.260962 -119.782507 -0.000000 0.132336 0.346016 -0.146736 163.440383 581.814605 -0.000000 0.429407 0.307356 -0.382581
2.795000 65.260568 -112.121828 -0.000000 0.133733 0.352811 -0.146748 170.272154 583.822247 -0.000000 0.428734 0.300267 -0.382485
2.800000 66.188200 -104.574353 -0.000000 0.135434 0.359441 -0.146728 178.364895 586.309326 -0.000000 0.427735 0.293184 -0.382485
2.805000 66.649737 -97.668641 -0.000000 0.137381 0.365997 -0.146774 189.140229 588.507856 -0.000000 0.426525 0.286095 -0.382491
2.810000 67.246065 -91.241295 -0.000000 0.139548 0.372666 -0.146867 197.810948 591.281569 -0.000000 0.425107 0.279046 -0.382497
